<mxfile host="app.diagrams.net" modified="2024-05-12T22:34:02.688Z" agent="Mozilla/5.0 (Windows NT 10.0; Win64; x64) AppleWebKit/537.36 (KHTML, like Gecko) Chrome/124.0.0.0 Safari/537.36 Edg/124.0.0.0" etag="PhMJn3qs7MzJ8pixomaT" version="24.4.0" type="github">
  <diagram name="PÃ¡gina-1" id="MYTPL2bx1kW0tjAlLPsP">
    <mxGraphModel dx="730" dy="775" grid="1" gridSize="10" guides="1" tooltips="1" connect="1" arrows="1" fold="1" page="1" pageScale="1" pageWidth="827" pageHeight="1169" math="0" shadow="0">
      <root>
        <mxCell id="0" />
        <mxCell id="1" parent="0" />
        <mxCell id="eDJjk_mYBG-lFITdyB-M-3" value="" style="edgeStyle=orthogonalEdgeStyle;rounded=0;orthogonalLoop=1;jettySize=auto;html=1;" edge="1" parent="1" source="eDJjk_mYBG-lFITdyB-M-1" target="eDJjk_mYBG-lFITdyB-M-2">
          <mxGeometry relative="1" as="geometry" />
        </mxCell>
        <mxCell id="eDJjk_mYBG-lFITdyB-M-1" value="INICIO 6" style="ellipse;whiteSpace=wrap;html=1;" vertex="1" parent="1">
          <mxGeometry x="280" y="50" width="120" height="80" as="geometry" />
        </mxCell>
        <mxCell id="eDJjk_mYBG-lFITdyB-M-5" value="" style="edgeStyle=orthogonalEdgeStyle;rounded=0;orthogonalLoop=1;jettySize=auto;html=1;" edge="1" parent="1" source="eDJjk_mYBG-lFITdyB-M-2" target="eDJjk_mYBG-lFITdyB-M-4">
          <mxGeometry relative="1" as="geometry" />
        </mxCell>
        <mxCell id="eDJjk_mYBG-lFITdyB-M-2" value="int n,string number=to_string(n),&amp;nbsp;int number1=0,string c,int negative=1" style="whiteSpace=wrap;html=1;" vertex="1" parent="1">
          <mxGeometry x="270" y="190" width="140" height="90" as="geometry" />
        </mxCell>
        <mxCell id="eDJjk_mYBG-lFITdyB-M-7" value="" style="edgeStyle=orthogonalEdgeStyle;rounded=0;orthogonalLoop=1;jettySize=auto;html=1;" edge="1" parent="1" source="eDJjk_mYBG-lFITdyB-M-4" target="eDJjk_mYBG-lFITdyB-M-6">
          <mxGeometry relative="1" as="geometry" />
        </mxCell>
        <mxCell id="eDJjk_mYBG-lFITdyB-M-18" value="" style="edgeStyle=orthogonalEdgeStyle;rounded=0;orthogonalLoop=1;jettySize=auto;html=1;" edge="1" parent="1" source="eDJjk_mYBG-lFITdyB-M-4" target="eDJjk_mYBG-lFITdyB-M-17">
          <mxGeometry relative="1" as="geometry" />
        </mxCell>
        <mxCell id="eDJjk_mYBG-lFITdyB-M-4" value="int i=0 , i &amp;lt; number.size()" style="rhombus;whiteSpace=wrap;html=1;" vertex="1" parent="1">
          <mxGeometry x="265" y="320" width="150" height="80" as="geometry" />
        </mxCell>
        <mxCell id="eDJjk_mYBG-lFITdyB-M-9" value="" style="edgeStyle=orthogonalEdgeStyle;rounded=0;orthogonalLoop=1;jettySize=auto;html=1;" edge="1" parent="1" source="eDJjk_mYBG-lFITdyB-M-6" target="eDJjk_mYBG-lFITdyB-M-8">
          <mxGeometry relative="1" as="geometry" />
        </mxCell>
        <mxCell id="eDJjk_mYBG-lFITdyB-M-6" value="&amp;nbsp;c=number[i]" style="whiteSpace=wrap;html=1;" vertex="1" parent="1">
          <mxGeometry x="440" y="335" width="100" height="50" as="geometry" />
        </mxCell>
        <mxCell id="eDJjk_mYBG-lFITdyB-M-11" value="" style="edgeStyle=orthogonalEdgeStyle;rounded=0;orthogonalLoop=1;jettySize=auto;html=1;" edge="1" parent="1" source="eDJjk_mYBG-lFITdyB-M-8" target="eDJjk_mYBG-lFITdyB-M-10">
          <mxGeometry relative="1" as="geometry" />
        </mxCell>
        <mxCell id="eDJjk_mYBG-lFITdyB-M-16" value="" style="edgeStyle=orthogonalEdgeStyle;rounded=0;orthogonalLoop=1;jettySize=auto;html=1;" edge="1" parent="1" source="eDJjk_mYBG-lFITdyB-M-8" target="eDJjk_mYBG-lFITdyB-M-15">
          <mxGeometry relative="1" as="geometry" />
        </mxCell>
        <mxCell id="eDJjk_mYBG-lFITdyB-M-8" value="c ==&quot;-&quot;" style="rhombus;whiteSpace=wrap;html=1;" vertex="1" parent="1">
          <mxGeometry x="630" y="320" width="80" height="80" as="geometry" />
        </mxCell>
        <mxCell id="eDJjk_mYBG-lFITdyB-M-28" style="edgeStyle=orthogonalEdgeStyle;rounded=0;orthogonalLoop=1;jettySize=auto;html=1;entryX=1;entryY=0.5;entryDx=0;entryDy=0;" edge="1" parent="1" source="eDJjk_mYBG-lFITdyB-M-10" target="eDJjk_mYBG-lFITdyB-M-22">
          <mxGeometry relative="1" as="geometry">
            <Array as="points">
              <mxPoint x="800" y="295" />
            </Array>
          </mxGeometry>
        </mxCell>
        <mxCell id="eDJjk_mYBG-lFITdyB-M-10" value="negative=-1" style="whiteSpace=wrap;html=1;" vertex="1" parent="1">
          <mxGeometry x="750" y="340" width="97.5" height="40" as="geometry" />
        </mxCell>
        <mxCell id="eDJjk_mYBG-lFITdyB-M-32" style="edgeStyle=orthogonalEdgeStyle;rounded=0;orthogonalLoop=1;jettySize=auto;html=1;entryX=1;entryY=0.5;entryDx=0;entryDy=0;" edge="1" parent="1" source="eDJjk_mYBG-lFITdyB-M-15" target="eDJjk_mYBG-lFITdyB-M-22">
          <mxGeometry relative="1" as="geometry">
            <mxPoint x="900" y="280" as="targetPoint" />
            <Array as="points">
              <mxPoint x="901" y="460" />
              <mxPoint x="901" y="295" />
            </Array>
          </mxGeometry>
        </mxCell>
        <mxCell id="eDJjk_mYBG-lFITdyB-M-15" value="&amp;nbsp;number1=number1*negative+stoi(c)" style="whiteSpace=wrap;html=1;" vertex="1" parent="1">
          <mxGeometry x="570" y="430" width="200" height="60" as="geometry" />
        </mxCell>
        <mxCell id="eDJjk_mYBG-lFITdyB-M-20" value="" style="edgeStyle=orthogonalEdgeStyle;rounded=0;orthogonalLoop=1;jettySize=auto;html=1;" edge="1" parent="1" source="eDJjk_mYBG-lFITdyB-M-17" target="eDJjk_mYBG-lFITdyB-M-19">
          <mxGeometry relative="1" as="geometry" />
        </mxCell>
        <mxCell id="eDJjk_mYBG-lFITdyB-M-17" value="devuelve&amp;nbsp;&lt;div&gt;number1&lt;/div&gt;" style="shape=parallelogram;perimeter=parallelogramPerimeter;whiteSpace=wrap;html=1;fixedSize=1;" vertex="1" parent="1">
          <mxGeometry x="280" y="450" width="120" height="60" as="geometry" />
        </mxCell>
        <mxCell id="eDJjk_mYBG-lFITdyB-M-19" value="FIN" style="ellipse;whiteSpace=wrap;html=1;" vertex="1" parent="1">
          <mxGeometry x="300" y="545" width="80" height="65" as="geometry" />
        </mxCell>
        <mxCell id="eDJjk_mYBG-lFITdyB-M-27" style="edgeStyle=orthogonalEdgeStyle;rounded=0;orthogonalLoop=1;jettySize=auto;html=1;entryX=1;entryY=0;entryDx=0;entryDy=0;" edge="1" parent="1" source="eDJjk_mYBG-lFITdyB-M-22" target="eDJjk_mYBG-lFITdyB-M-4">
          <mxGeometry relative="1" as="geometry">
            <Array as="points">
              <mxPoint x="378" y="290" />
            </Array>
          </mxGeometry>
        </mxCell>
        <mxCell id="eDJjk_mYBG-lFITdyB-M-22" value="I++" style="rounded=0;whiteSpace=wrap;html=1;" vertex="1" parent="1">
          <mxGeometry x="640" y="280" width="80" height="30" as="geometry" />
        </mxCell>
        <mxCell id="eDJjk_mYBG-lFITdyB-M-29" value="SI" style="text;html=1;align=center;verticalAlign=middle;whiteSpace=wrap;rounded=0;" vertex="1" parent="1">
          <mxGeometry x="690" y="330" width="60" height="30" as="geometry" />
        </mxCell>
        <mxCell id="eDJjk_mYBG-lFITdyB-M-31" value="no" style="text;html=1;align=center;verticalAlign=middle;whiteSpace=wrap;rounded=0;" vertex="1" parent="1">
          <mxGeometry x="680" y="400" width="60" height="30" as="geometry" />
        </mxCell>
        <mxCell id="eDJjk_mYBG-lFITdyB-M-33" value="si" style="text;html=1;align=center;verticalAlign=middle;whiteSpace=wrap;rounded=0;" vertex="1" parent="1">
          <mxGeometry x="384" y="330" width="60" height="30" as="geometry" />
        </mxCell>
        <mxCell id="eDJjk_mYBG-lFITdyB-M-34" value="no" style="text;html=1;align=center;verticalAlign=middle;whiteSpace=wrap;rounded=0;" vertex="1" parent="1">
          <mxGeometry x="340" y="400" width="60" height="30" as="geometry" />
        </mxCell>
      </root>
    </mxGraphModel>
  </diagram>
</mxfile>
